<svg width="121" height="157" viewBox="0 0 121 157" fill="none" xmlns="http://www.w3.org/2000/svg">
<circle cx="8" cy="51" r="8" fill="#4A5759"/>
<circle cx="40.5" cy="17.5" r="10.5" fill="#E07A5F"/>
<circle cx="77" cy="130" r="15" fill="#F39237" fill-opacity="0.74"/>
<circle cx="104.5" cy="66.5" r="16.5" fill="#EF8275"/>
<circle cx="25" cy="150" r="7" fill="#C1666B"/>
<circle cx="80" cy="86" r="6" fill="#D5896F"/>
<path d="M50.292 45.511C52.32 45.511 54.621 45.823 57.195 46.447C57.585 38.803 62.031 34.981 70.533 34.981C74.121 34.981 77.124 35.917 79.542 37.789C81.96 39.661 83.169 42.04 83.169 44.926C83.169 46.798 82.545 48.397 81.297 49.723C80.127 51.049 78.723 51.712 77.085 51.712C75.837 51.712 74.745 51.283 73.809 50.425C72.873 49.567 72.405 48.553 72.405 47.383C72.405 46.135 73.263 44.848 74.979 43.522C73.731 41.962 72.132 41.182 70.182 41.182C66.048 41.182 63.942 43.756 63.864 48.904C69.792 52.882 72.756 58.225 72.756 64.933C72.756 70.315 70.728 74.8 66.672 78.388C62.616 81.976 57.546 83.77 51.462 83.77C47.172 83.77 42.726 82.756 38.124 80.728C36.876 80.182 35.823 79.909 34.965 79.909C33.873 79.909 32.898 80.416 32.04 81.43C31.182 82.366 30.753 83.497 30.753 84.823C30.753 88.879 34.848 90.907 43.038 90.907H43.74C44.364 90.907 45.066 90.868 45.846 90.79C46.626 90.79 47.094 90.79 47.25 90.79C54.66 90.79 60.666 91.492 65.268 92.896C69.558 94.222 72.951 96.289 75.447 99.097C77.943 101.905 79.191 105.064 79.191 108.574C79.191 114.268 76.539 118.753 71.235 122.029C66.009 125.383 58.911 127.06 49.941 127.06C40.971 127.06 33.912 125.5 28.764 122.38C23.694 119.26 21.159 114.97 21.159 109.51C21.159 103.192 24.708 98.707 31.806 96.055C25.488 93.559 22.329 89.815 22.329 84.823C22.329 79.363 25.488 75.619 31.806 73.591C29.778 70.861 28.764 67.663 28.764 63.997C28.764 58.693 30.792 54.286 34.848 50.776C38.982 47.266 44.13 45.511 50.292 45.511ZM50.643 53.233C47.211 53.233 44.286 54.247 41.868 56.275C39.45 58.303 38.124 60.838 37.89 63.88C37.89 63.88 37.89 64.114 37.89 64.582C37.89 68.014 39.06 70.783 41.4 72.889C43.74 74.995 46.782 76.048 50.526 76.048C54.426 76.048 57.585 74.995 60.003 72.889C62.499 70.783 63.747 68.092 63.747 64.816C63.747 61.462 62.499 58.693 60.003 56.509C57.507 54.325 54.387 53.233 50.643 53.233ZM50.76 98.629C44.52 98.629 39.606 99.565 36.018 101.437C32.43 103.309 30.636 105.844 30.636 109.042C30.636 112.24 32.391 114.736 35.901 116.53C39.411 118.402 44.13 119.338 50.058 119.338C56.298 119.338 61.212 118.402 64.8 116.53C68.466 114.658 70.299 112.162 70.299 109.042C70.299 105.766 68.583 103.231 65.151 101.437C61.719 99.565 56.922 98.629 50.76 98.629Z" fill="#23A384"/>
</svg>
